<?xml version="1.0"?>
<svg xmlns="http://www.w3.org/2000/svg" width="1024" height="716" viewBox="0 0 1024 716" fill="none" style="background-color:transparent;">
  <rect width="1024" height="716" fill="none"/>
  <path opacity="0.2" d="M239.872 355.712L324.782 405.059C330.134 408.149 336.726 408.149 342.076 405.059L424.658 357.379C428.511 355.155 428.511 349.593 424.658 347.369L339.749 298.021C334.398 294.932 327.804 294.932 322.454 298.021L239.872 345.701C236.019 347.925 236.019 353.488 239.872 355.712Z" fill="#E5ECF2"/>
  <path opacity="0.2" d="M596.671 352.59L681.582 401.937C686.932 405.027 693.525 405.027 698.877 401.937L781.46 354.258C785.313 352.032 785.313 346.471 781.46 344.246L696.551 294.9C691.199 291.81 684.606 291.81 679.255 294.9L596.671 342.578C592.818 344.804 592.818 350.366 596.671 352.59Z" fill="#E5ECF2"/>
  <path d="M393.951 452.27L507.638 518.34C514.803 522.477 523.63 522.477 530.795 518.34L641.365 454.502C646.524 451.524 646.524 444.077 641.365 441.097L527.678 375.028C520.513 370.891 511.686 370.891 504.521 375.028L393.951 438.865C388.79 441.845 388.79 449.292 393.951 452.27Z" fill="#E5ECF2"/>
  <path opacity="0.2" d="M234.894 578.343L370.131 656.568C375.481 659.659 382.075 659.659 387.426 656.568L470.007 608.89C473.861 606.666 473.861 601.103 470.007 598.879L334.77 520.653C329.42 517.562 322.826 517.562 317.476 520.653L234.894 568.331C231.041 570.557 231.041 576.119 234.894 578.343Z" fill="#E5ECF2"/>
  <path opacity="0.2" d="M602.077 566.59L686.986 615.936C692.336 619.026 698.929 619.026 704.282 615.936L786.864 568.258C790.717 566.032 790.717 560.471 786.864 558.247L701.955 508.902C696.604 505.812 690.01 505.812 684.658 508.902L602.077 556.58C598.222 558.804 598.222 564.365 602.077 566.59Z" fill="#E5ECF2"/>
  <path d="M413.933 329.261L339.747 286.106C334.396 283.016 327.803 283.016 322.452 286.106L243.553 331.657L236.979 330.334V338.79C236.979 340.737 237.941 342.683 239.869 343.796L324.778 393.142C330.13 396.233 336.722 396.233 342.073 393.142L424.654 345.464C426.582 344.351 427.545 342.404 427.545 340.458V332.002L413.933 329.261Z" fill="#5BA5F5"/>
  <path d="M239.869 335.34L324.778 384.686C330.13 387.776 336.722 387.776 342.072 384.686L424.654 337.008C428.507 334.782 428.507 329.22 424.654 326.996L339.745 277.65C334.394 274.56 327.801 274.56 322.45 277.65L239.869 325.328C236.015 327.552 236.015 333.114 239.869 335.34Z" fill="#A5CBF4"/>
  <path opacity="0.1" d="M280.822 338.723L248.654 320.245L301.587 289.685L333.755 308.161L280.822 338.723Z" fill="url(#paint0_linear_183_625)"/>
  <path d="M287.562 306.439C287.562 306.439 286.734 309.47 288.85 310.34C290.966 311.211 296.933 316.309 301.099 316.744C305.265 317.18 304.954 314.444 303.772 312.206C302.591 309.967 298.052 303.883 298.052 303.883L287.562 306.439Z" fill="#2D527B"/>
  <path d="M276.087 313.714C276.087 313.714 275.26 316.744 277.375 317.615C279.489 318.485 285.458 323.584 289.624 324.019C293.79 324.454 293.479 321.719 292.298 319.48C291.116 317.242 286.577 311.158 286.577 311.158L276.087 313.714Z" fill="#1E354E"/>
  <path d="M275.02 282.849L275.407 313.345C275.407 313.345 278.226 315.252 282.205 314.34C286.184 313.428 287.759 311.522 287.759 311.522V306.796C287.759 306.796 290.412 307.461 293.977 307.128C297.542 306.796 299.283 305.387 299.283 305.387L299.78 276.452L275.02 282.849Z" fill="#2D527B"/>
  <path d="M289.998 281.551L287.76 282.173V306.795C287.76 306.795 288.622 307.002 289.998 307.126V281.551Z" fill="#CEDFED"/>
  <path d="M298.874 217.517L301.565 232.058L312.758 229.944L314.126 239.645C314.126 239.645 300.658 243.5 298.874 242.008C297.088 240.514 298.874 217.517 298.874 217.517Z" fill="#F28AB6"/>
  <path d="M291.077 209.715C291.077 209.715 296.881 209.798 298.373 214.606C299.865 219.414 299.699 246.939 299.699 251.084C299.699 255.229 300.528 276.288 300.528 276.288C300.528 276.288 300.197 278.941 292.735 282.257C285.274 285.573 272.176 282.257 272.176 282.257C272.176 282.257 272.342 263.198 273.005 249.1C273.668 235.001 273.005 221.735 275.492 217.259C277.979 212.782 284.943 210.129 291.077 209.715Z" fill="#F96CA1"/>
  <path d="M280.648 201.053V212.782L288.588 221.069L290.853 220.562L290.163 210.792L280.648 201.053Z" fill="#CD8B74"/>
  <path d="M270.661 262.525L279.615 261.53C279.615 261.53 278.121 251.829 278.869 242.255C279.615 232.68 282.746 225.898 281.329 219.531C279.911 213.162 274.89 214.773 273.273 221.364C271.656 227.953 269.667 258.297 270.661 262.525Z" fill="#F28AB6"/>
  <path d="M279.615 261.53C279.615 261.53 281.169 265.758 280.92 266.877C280.672 267.996 278.558 265.696 278.558 265.696C278.558 265.696 280.326 270.608 279.753 272.287C279.179 273.965 274.255 275.518 272.303 273.033C270.35 270.546 270.663 262.525 270.663 262.525L279.615 261.53Z" fill="#E69C83"/>
  <path d="M312.758 229.943C312.758 229.943 315.701 228.948 318.437 228.45C321.172 227.951 323.328 229.656 323.659 231.333C323.991 233.01 320.343 231.333 320.343 231.333C320.343 231.333 321.172 233.59 320.426 236.077C319.68 238.565 314.126 239.642 314.126 239.642L312.758 229.943Z" fill="#E69C83"/>
  <path d="M290.376 220.669L292.86 222.668L290.166 210.886L290.376 220.669Z" fill="#CEDFED"/>
  <path d="M280.648 212.588L287.303 223.508L289.58 220.847L280.648 212.588Z" fill="#CEDFED"/>
  <path d="M281.543 203.58C281.543 203.58 282.662 207.642 285.646 209.715C288.631 211.787 291 212.533 293.173 211.538C295.346 210.544 296.838 208.803 296.465 204.45C296.092 200.098 297.46 193.134 294.227 188.533C294.227 188.533 291.242 184.305 284.589 186.544C277.936 188.782 279.18 197.86 281.543 203.58Z" fill="#E69C83"/>
  <path d="M296.34 195.299C296.34 195.299 297.458 195.186 297.023 192.386C296.588 189.589 295.102 187.972 293.171 186.666C291.24 185.361 286.888 184.739 283.655 186.231C280.422 187.723 278.494 190.148 278.246 193.817C277.997 197.485 278.316 198.418 279.648 199.91C280.981 201.402 283.033 201.775 283.033 201.775C283.033 201.775 282.349 199.537 283.593 198.604C284.836 197.672 286.246 198.542 286.349 195.495C286.453 192.449 286.03 197.427 286.703 195.702C287.376 193.977 291.039 191.942 292.283 193.31C293.526 194.68 295.905 190.813 296.34 195.299Z" fill="#E5ECF2"/>
  <g opacity="0.5">
    <path d="M292.297 200.273C292.297 201.821 291.355 203.621 290.195 204.291C289.032 204.96 288.092 204.249 288.092 202.701C288.092 201.153 289.032 199.353 290.195 198.684C291.357 198.013 292.297 198.725 292.297 200.273Z" fill="#F7F1E3"/>
    <path d="M297.628 197.195C297.628 198.743 296.687 200.543 295.525 201.212C294.362 201.882 293.422 201.171 293.422 199.623C293.422 198.075 294.362 196.276 295.525 195.605C296.687 194.936 297.628 195.647 297.628 197.195Z" fill="#F7F1E3"/>
  </g>
  <path d="M280.791 277.375L332.265 307.093L385.198 276.532L333.726 246.813L280.791 277.375Z" fill="#DBECFD"/>
  <path d="M280.791 277.375V338.678L332.265 368.399V307.093L280.791 277.375Z" fill="#62A9F5"/>
  <path d="M332.266 368.399L385.199 337.837V276.532L332.266 307.093V368.399Z" fill="#A4D0FA"/>
  <path opacity="0.2" d="M351.838 284.716C340.407 291.316 323.114 292.032 313.215 286.316C303.315 280.601 304.557 270.616 315.987 264.017C327.418 257.417 344.711 256.701 354.612 262.416C364.511 268.132 363.27 278.115 351.838 284.716Z" fill="#FF528E"/>
  <path opacity="0.5" d="M346.169 281.442C338.352 285.956 326.527 286.445 319.76 282.538C312.99 278.629 313.839 271.804 321.655 267.29C329.47 262.777 341.295 262.287 348.064 266.195C354.834 270.104 353.986 276.931 346.169 281.442Z" fill="#FF528E"/>
  <path opacity="0.5" d="M361.279 271.633V96.1325L306.559 101.749V276.009C306.294 279.863 308.473 283.58 313.215 286.318C323.113 292.033 340.407 291.316 351.837 284.717C358.313 280.977 361.516 276.153 361.279 271.633Z" fill="url(#paint1_linear_183_625)"/>
  <path opacity="0.5" d="M352.629 122.77C352.56 120.351 351.06 118.051 348.065 116.321C341.295 112.412 329.471 112.903 321.656 117.416C317.11 120.04 314.926 123.446 315.219 126.607V275.346C314.974 278.034 316.458 280.633 319.758 282.539C326.528 286.449 338.352 285.958 346.167 281.444C350.48 278.954 352.666 275.761 352.627 272.741H352.634V122.77H352.629Z" fill="url(#paint2_linear_183_625)"/>
  <path opacity="0.5" d="M343.95 187.216C343.914 185.92 343.108 184.686 341.503 183.76C337.873 181.665 331.532 181.927 327.341 184.347C324.905 185.753 323.733 187.58 323.891 189.275V269.031C323.759 270.471 324.556 271.866 326.324 272.888C329.954 274.982 336.294 274.721 340.486 272.301C342.798 270.967 343.971 269.253 343.95 267.635H343.953V187.218L343.95 187.216Z" fill="url(#paint3_linear_183_625)"/>
  <path opacity="0.5" d="M346.171 200.23C338.354 204.744 326.529 205.233 319.762 201.326C312.992 197.417 313.841 190.591 321.657 186.078C329.472 181.566 341.297 181.075 348.066 184.984C354.836 188.89 353.987 195.717 346.171 200.23Z" stroke="#FF528E" stroke-width="0.4805" stroke-miterlimit="10"/>
  <path opacity="0.5" d="M346.171 228.804C338.354 233.318 326.529 233.807 319.762 229.898C312.992 225.991 313.841 219.164 321.657 214.65C329.472 210.137 341.297 209.648 348.066 213.557C354.836 217.466 353.987 224.293 346.171 228.804Z" stroke="#FF528E" stroke-width="0.4805" stroke-miterlimit="10"/>
  <path opacity="0.5" d="M346.171 256.943C338.354 261.457 326.529 261.946 319.762 258.039C312.992 254.129 313.841 247.304 321.657 242.791C329.472 238.278 341.297 237.788 348.066 241.697C354.836 245.603 353.987 252.43 346.171 256.943Z" stroke="#FF528E" stroke-width="0.4805" stroke-miterlimit="10"/>
  <path d="M770.734 326.139L696.548 282.984C691.196 279.894 684.603 279.894 679.251 282.984L600.354 328.536L593.779 327.212V335.668C593.779 337.615 594.742 339.562 596.67 340.674L681.581 390.022C686.931 393.112 693.523 393.112 698.875 390.022L781.458 342.342C783.384 341.229 784.349 339.283 784.349 337.336V328.88L770.734 326.139Z" fill="#5BA5F5"/>
  <path d="M596.669 332.218L681.58 381.564C686.931 384.654 693.523 384.654 698.875 381.564L781.458 333.886C785.311 331.66 785.311 326.1 781.458 323.874L696.549 274.528C691.197 271.438 684.605 271.438 679.253 274.528L596.669 322.206C592.816 324.43 592.816 329.993 596.669 332.218Z" fill="#A5CBF4"/>
  <path opacity="0.1" d="M737.967 336.808L771.413 317.95L719.929 288.199L686.484 307.056L737.967 336.808Z" fill="url(#paint4_linear_183_625)"/>
  <path d="M719.93 212.329C719.93 212.329 705.709 228.339 705.994 233.152C706.278 237.964 710.895 237.991 710.895 237.991L717.822 235.617L719.93 212.329Z" fill="#EDC65A"/>
  <path d="M718.998 199.86C718.998 199.86 716.976 198.942 716.901 196.556C716.823 194.169 718.441 193.246 718.441 193.246C718.441 193.246 718.311 191.899 718.991 190.823C719.672 189.745 721.443 189.437 721.443 189.437C721.443 189.437 721.365 187.782 722.867 187.129C724.367 186.473 725.945 187.129 725.945 187.129C725.945 187.129 727.486 185.128 729.564 185.319C731.643 185.512 732.297 187.513 732.297 187.513C732.297 187.513 735.03 187.358 736.337 188.783C737.646 190.207 737.762 192.17 737.762 192.17C737.762 192.17 739.648 192.592 739.84 194.478C740.032 196.364 739.379 197.633 739.379 197.633C739.379 197.633 740.302 198.48 740.109 200.635C739.918 202.791 738.339 203.945 738.339 203.945C738.339 203.945 738.725 204.369 738.339 205.023C737.955 205.676 737.56 205.906 737.56 205.906C737.56 205.906 739.009 205.659 740.136 206.985C741.265 208.313 741.15 210.391 741.15 210.391C741.15 210.391 742.824 211.776 743.054 213.278C743.286 214.778 743.054 215.875 743.054 215.875C743.054 215.875 743.919 217.203 743.688 219.164C743.457 221.126 741.206 222.051 741.206 222.051L727.235 208.659L718.998 199.86Z" fill="#2D527B"/>
  <path d="M726.48 301.768C726.48 301.768 721.093 307.193 721.555 309.618C722.016 312.043 726.404 311.56 729.635 308.221C732.868 304.885 732.752 304.728 732.752 303.074C732.752 301.419 730.89 300.344 730.89 300.344L726.48 301.768Z" fill="#2D527B"/>
  <path d="M734.675 277.061C734.675 277.061 735.252 281.795 735.369 285.258C735.464 288.107 732.902 297.832 731.992 301.191C731.786 301.945 731.217 302.536 730.469 302.758C729.763 302.967 728.918 303.155 728.442 303.035C727.518 302.804 726.479 301.766 726.479 301.766L725.787 276.022L734.675 277.061Z" fill="#805749"/>
  <path d="M716.896 297.736C716.896 297.736 711.509 303.163 711.969 305.586C712.432 308.011 716.819 307.528 720.051 304.191C723.282 300.854 723.167 300.697 723.167 299.043C723.167 297.39 721.305 296.315 721.305 296.315L716.896 297.736Z" fill="#2D527B"/>
  <path d="M725.095 273.03C725.095 273.03 725.672 277.763 725.788 281.227C725.884 284.076 723.322 293.801 722.41 297.16C722.206 297.913 721.637 298.506 720.889 298.728C720.183 298.938 719.338 299.125 718.861 299.007C717.938 298.775 716.899 297.736 716.899 297.736L716.205 271.992L725.095 273.03Z" fill="#805749"/>
  <path d="M715.297 255.966L715.858 271.982C715.858 271.982 717.822 275.33 723.133 276.947C728.443 278.563 737.333 277.524 737.333 277.524C737.333 277.524 740.335 262.053 740.335 258.59C740.333 255.127 716.006 250.917 715.297 255.966Z" fill="#2D527B"/>
  <path d="M722.9 209.525C722.9 209.525 720.153 210.448 718.986 212.873C717.821 215.296 716.898 222.917 716.204 225.571C715.511 228.226 717.821 232.498 717.821 235.615C717.821 238.732 714.127 253.509 714.127 254.549C714.127 255.588 718.224 257.954 719.882 258.911C721.54 259.869 723.709 256.395 723.709 256.395C723.709 256.395 724.632 263.553 729.019 264.476C733.406 265.399 742.757 259.166 742.757 259.166C742.757 259.166 742.063 250.853 740.909 246.813C739.755 242.772 738.832 239.426 738.832 239.426L742.757 218.529C742.757 218.529 738.601 213.45 731.905 211.948C725.209 210.448 722.9 209.525 722.9 209.525Z" fill="#F9D97C"/>
  <path d="M725.213 210.448L725.721 214.703L725.905 217.222L732.832 212.884L732.44 204.667L725.213 210.448Z" fill="#67463A"/>
  <path d="M719.055 198.21C719.055 198.21 718.593 205.638 720.133 207.794C721.673 209.949 722.596 211.95 724.597 211.95C726.599 211.95 730.601 209.179 731.832 207.178C733.063 205.177 732.224 203.599 731.601 202.099C731 200.648 728.06 196.326 724.347 195.73C721 195.191 719.055 196.17 719.055 198.21Z" fill="#805749"/>
  <path d="M725.395 250.136L712.165 245.65C711.682 245.485 711.183 244.879 711.051 244.296L706.029 222.174C705.895 221.59 706.181 221.251 706.662 221.413L719.891 225.9C720.376 226.064 720.873 226.67 721.006 227.253L726.029 249.377C726.163 249.959 725.878 250.3 725.395 250.136Z" fill="#B37C2E"/>
  <path d="M717.29 226.724L710.105 224.286L709.4 221.184L716.587 223.62L717.29 226.724Z" fill="#DBECFD"/>
  <path d="M742.759 218.529C742.759 218.529 744.685 220.723 743.72 226.148C742.759 231.574 737.986 246.89 734.754 247.968C731.521 249.045 720.994 245.044 720.994 245.044L721.823 238.887L730.579 240.824C730.579 240.824 735.891 222.861 738.6 219.953C741.312 217.045 742.759 218.529 742.759 218.529Z" fill="#EDC65A"/>
  <path d="M721.827 238.887C721.827 238.887 720.596 236.307 719.612 236.481C718.632 236.653 719.612 238.501 719.612 238.501C719.612 238.501 716.958 236.974 715.687 237.678C714.418 238.384 714.128 241.444 717.361 243.349C719.41 244.556 720.996 245.042 720.996 245.042L721.827 238.887Z" fill="#805749"/>
  <path opacity="0.5" d="M721.128 203.543L718.851 202.228C718.58 202.072 718.414 201.783 718.414 201.471V200.144C718.414 199.471 719.143 199.052 719.725 199.387L722.001 200.702C722.272 200.858 722.438 201.147 722.438 201.46V202.786C722.44 203.459 721.711 203.88 721.128 203.543Z" fill="#F7F1E3"/>
  <path opacity="0.5" d="M726.349 206.56L724.072 205.246C723.801 205.09 723.637 204.801 723.637 204.489V203.162C723.637 202.489 724.364 202.069 724.946 202.405L727.224 203.72C727.493 203.876 727.659 204.165 727.659 204.478V205.802C727.659 206.475 726.932 206.896 726.349 206.56Z" fill="#F7F1E3"/>
  <path d="M633.549 276.357L685.023 306.076L737.958 275.513L686.483 245.796L633.549 276.357Z" fill="#DBECFD"/>
  <path d="M633.549 276.357V337.661L685.023 367.38V306.076L633.549 276.357Z" fill="#A4D0FA"/>
  <path d="M685.023 367.38L737.958 336.818V275.513L685.023 306.076V367.38Z" fill="#62A9F5"/>
  <path opacity="0.2" d="M704.593 283.698C693.162 290.299 675.869 291.015 665.968 285.299C656.069 279.584 657.31 269.599 668.741 263C680.173 256.4 697.466 255.684 707.365 261.399C717.266 267.115 716.024 277.098 704.593 283.698Z" fill="#FFD562"/>
  <path opacity="0.5" d="M698.926 280.425C691.111 284.939 679.286 285.428 672.517 281.521C665.748 277.613 666.597 270.786 674.413 266.273C682.229 261.76 694.052 261.27 700.822 265.179C707.591 269.085 706.743 275.912 698.926 280.425Z" fill="#FFD562"/>
  <path opacity="0.5" d="M714.035 270.614V95.1137L659.316 100.729V274.989C659.052 278.842 661.23 282.56 665.971 285.296C675.871 291.011 693.164 290.295 704.595 283.695C711.07 279.958 714.272 275.134 714.035 270.614Z" fill="url(#paint5_linear_183_625)"/>
  <path opacity="0.5" d="M705.386 121.751C705.317 119.332 703.817 117.032 700.821 115.304C694.052 111.396 682.229 111.885 674.412 116.399C669.867 119.023 667.683 122.43 667.978 125.59V274.329C667.732 277.015 669.215 279.615 672.516 281.521C679.286 285.43 691.11 284.939 698.926 280.425C703.238 277.937 705.425 274.742 705.387 271.722L705.392 271.721V121.749L705.386 121.751Z" fill="url(#paint6_linear_183_625)"/>
  <path opacity="0.5" d="M696.704 186.198C696.666 184.9 695.863 183.667 694.257 182.741C690.627 180.646 684.287 180.908 680.095 183.328C677.659 184.734 676.486 186.561 676.645 188.256V268.012C676.513 269.454 677.308 270.847 679.078 271.869C682.707 273.964 689.049 273.701 693.24 271.282C695.552 269.948 696.723 268.234 696.704 266.616H696.707V186.199H696.704V186.198Z" fill="url(#paint7_linear_183_625)"/>
  <path opacity="0.5" d="M698.928 199.212C691.113 203.725 679.288 204.214 672.519 200.307C665.75 196.399 666.599 189.573 674.415 185.059C682.231 180.546 694.054 180.056 700.824 183.964C707.593 187.873 706.745 194.7 698.928 199.212Z" stroke="#FFD562" stroke-width="0.4805" stroke-miterlimit="10"/>
  <path opacity="0.5" d="M698.928 227.787C691.113 232.301 679.288 232.79 672.519 228.883C665.75 224.973 666.599 218.148 674.415 213.635C682.231 209.122 694.054 208.632 700.824 212.54C707.593 216.447 706.745 223.274 698.928 227.787Z" stroke="#FFD562" stroke-width="0.4805" stroke-miterlimit="10"/>
  <path opacity="0.5" d="M698.928 255.925C691.113 260.438 679.288 260.927 672.519 257.02C665.75 253.111 666.599 246.286 674.415 241.772C682.231 237.259 694.054 236.769 700.824 240.677C707.593 244.586 706.745 251.411 698.928 255.925Z" stroke="#FFD562" stroke-width="0.4805" stroke-miterlimit="10"/>
  <path d="M634.708 312.853C632.991 312.853 631.317 311.96 630.395 310.364C629.023 307.984 629.837 304.942 632.217 303.569L640.029 299.059C642.402 297.685 645.45 298.498 646.826 300.88C648.198 303.258 647.384 306.302 645.005 307.675L637.193 312.185C636.409 312.637 635.554 312.853 634.708 312.853Z" fill="#2D527B"/>
  <path d="M659.794 328.314C658.075 328.314 656.403 327.421 655.481 325.825C654.108 323.447 654.923 320.405 657.303 319.031L665.114 314.52C667.486 313.148 670.534 313.959 671.908 316.341C673.281 318.721 672.466 321.762 670.088 323.136L662.276 327.646C661.493 328.1 660.637 328.314 659.794 328.314Z" fill="#2D527B"/>
  <path d="M633.36 308.791V346.61L526.74 408.617" stroke="#FF528E" stroke-width="2.4961" stroke-miterlimit="10" stroke-linecap="round" stroke-linejoin="round"/>
  <path d="M658.45 324.252V362.071L529.736 436.836" stroke="#FFD562" stroke-width="2.4961" stroke-miterlimit="10" stroke-linecap="round" stroke-linejoin="round"/>
  <path d="M382.778 319.764C381.934 319.764 381.08 319.549 380.295 319.096L372.483 314.586C370.105 313.211 369.29 310.17 370.663 307.791C372.036 305.411 375.076 304.594 377.458 305.97L385.27 310.48C387.648 311.853 388.463 314.897 387.09 317.275C386.169 318.873 384.498 319.764 382.778 319.764Z" fill="#2D527B"/>
  <path d="M357.688 335.225C356.844 335.225 355.988 335.01 355.206 334.557L347.394 330.047C345.015 328.673 344.2 325.631 345.573 323.252C346.946 320.874 349.989 320.054 352.368 321.432L360.18 325.942C362.558 327.316 363.373 330.358 362 332.737C361.08 334.332 359.408 335.225 357.688 335.225Z" fill="#2D527B"/>
  <path d="M384.125 315.702V353.521L490.745 415.529" stroke="#FFD562" stroke-width="2.4961" stroke-miterlimit="10" stroke-linecap="round" stroke-linejoin="round"/>
  <path d="M359.037 331.163V368.982L487.752 443.747" stroke="#59A3F5" stroke-width="2.4961" stroke-miterlimit="10" stroke-linecap="round" stroke-linejoin="round"/>
  <path d="M627.006 423.76L527.675 365.979C520.51 361.842 511.683 361.842 504.518 365.979L398.88 426.969L390.078 425.198V436.52C390.078 439.127 391.368 441.734 393.947 443.223L507.633 509.292C514.798 513.43 523.625 513.43 530.79 509.292L641.361 445.455C643.94 443.966 645.232 441.359 645.232 438.752V427.43L627.006 423.76Z" fill="#5BA5F5"/>
  <path d="M393.949 431.899L507.636 497.968C514.801 502.105 523.628 502.105 530.793 497.968L641.363 434.13C646.522 431.151 646.522 423.704 641.363 420.726L527.676 354.655C520.511 350.517 511.684 350.517 504.519 354.655L393.949 418.492C388.788 421.472 388.788 428.919 393.949 431.899Z" fill="#A5CBF4"/>
  <path opacity="0.1" d="M490.004 487.723L517.655 472.423L437.621 426.043L409.969 441.343L490.004 487.723Z" fill="url(#paint8_linear_183_625)"/>
  <path d="M437.621 330.804L517.655 377.013L599.959 329.495L519.925 283.287L437.621 330.804Z" fill="#DBECFD"/>
  <path d="M437.621 330.804V426.124L517.655 472.331V377.013L437.621 330.804Z" fill="#62A9F5"/>
  <path d="M517.654 472.331L599.959 424.814V329.495L517.654 377.013V472.331Z" fill="#A4D0FA"/>
  <path d="M508.336 388.746V415.326L443.742 378.035V351.453L508.336 388.746Z" fill="#2D527B"/>
  <path d="M501.674 395.656L497.596 393.3V390.819L501.674 393.175V395.656Z" fill="#52F894"/>
  <path d="M480.477 380.938V383.418L476.4 381.062V378.583L480.477 380.938Z" fill="#52F894"/>
  <path d="M491.585 389.831L489.725 388.756V383.319L491.585 384.392V389.831Z" fill="#52F894"/>
  <path d="M485.537 378.645L486.854 381.158L485.283 382.344L486.854 385.344L485.537 386.339L482.654 380.829L482.656 380.828L482.654 380.824L485.537 378.645Z" fill="#52F894"/>
  <path d="M495.717 392.216L493.678 391.039V388.558L495.717 389.736V392.216Z" fill="#52F894"/>
  <path d="M490.869 401.646L486.791 399.293V396.812L490.869 399.167V401.646Z" fill="#52F894"/>
  <path d="M501.972 408.059L500.113 406.985V401.548L501.972 402.623V408.059Z" fill="#52F894"/>
  <path d="M482.229 391.221L484.09 392.295V395.253V397.732L482.229 396.66L480.012 395.379V392.898L482.229 394.178V391.221Z" fill="#52F894"/>
  <path d="M495.925 396.872L497.24 399.385L495.67 400.574L497.24 403.572L495.925 404.566L493.041 399.057L493.043 399.055L493.041 399.052L495.925 396.872Z" fill="#52F894"/>
  <path d="M478.131 391.814V394.294L476.094 393.116V390.636L478.131 391.814Z" fill="#52F894"/>
  <path d="M472.207 378.817L468.129 376.463V373.982L472.207 376.335V378.817Z" fill="#52F894"/>
  <path d="M451.012 364.101V366.58L446.934 364.225V361.744L451.012 364.101Z" fill="#52F894"/>
  <path d="M462.118 372.993L460.258 371.919V366.481L462.118 367.555V372.993Z" fill="#52F894"/>
  <path d="M456.073 361.806L457.387 364.319L455.818 365.505L457.387 368.506L456.073 369.5L453.188 363.991L453.191 363.989L453.188 363.986L456.073 361.806Z" fill="#52F894"/>
  <path d="M466.25 375.378L464.211 374.202V371.721L466.25 372.898V375.378Z" fill="#52F894"/>
  <path d="M461.403 384.809L457.326 382.454V379.975L461.403 382.328V384.809Z" fill="#52F894"/>
  <path d="M472.509 391.221L470.648 390.146V384.71L472.509 385.784V391.221Z" fill="#52F894"/>
  <path d="M452.766 374.384L454.625 375.458V378.414V380.895L452.766 379.82L450.549 378.54V376.061L452.766 377.339V374.384Z" fill="#52F894"/>
  <path d="M466.462 380.035L467.777 382.548L466.207 383.736L467.777 386.734L466.462 387.729L463.578 382.219L463.58 382.218L463.578 382.215L466.462 380.035Z" fill="#52F894"/>
  <path d="M448.668 374.975V377.457L446.631 376.278V373.798L448.668 374.975Z" fill="#52F894"/>
  <path d="M453.001 417.692C451.282 417.692 449.61 416.799 448.688 415.203C447.316 412.823 448.13 409.783 450.509 408.409L458.321 403.898C460.698 402.522 463.743 403.34 465.116 405.719C466.49 408.099 465.675 411.14 463.295 412.515L455.483 417.024C454.7 417.477 453.844 417.692 453.001 417.692Z" fill="#2D527B"/>
  <path d="M478.092 433.152C476.371 433.152 474.701 432.259 473.779 430.665C472.405 428.284 473.22 425.244 475.6 423.868L483.412 419.36C485.789 417.982 488.832 418.8 490.206 421.18C491.579 423.561 490.764 426.601 488.386 427.975L480.574 432.485C479.791 432.938 478.935 433.152 478.092 433.152Z" fill="#2D527B"/>
  <path opacity="0.75" d="M392.197 208.538V404.646C392.197 408.353 396.21 410.669 399.419 408.815L630.023 275.676C634.703 272.974 637.586 267.98 637.586 262.576V66.4695C637.586 62.7628 633.571 60.4463 630.362 62.2988L399.759 195.438C395.08 198.14 392.197 203.134 392.197 208.538Z" fill="url(#paint9_linear_183_625)"/>
  <path opacity="0.5" d="M392.202 404.646V208.538C392.202 203.133 395.085 198.139 399.766 195.438L630.369 62.2988C631.867 61.4331 633.538 61.4858 634.898 62.1569L627.279 57.7568L627.277 57.76C625.849 56.8576 623.966 56.6838 622.295 57.6484L391.692 190.787C387.011 193.49 384.129 198.483 384.129 203.888V399.996C384.129 402.051 385.364 403.675 387.011 404.402L394.313 408.619C393.068 407.774 392.202 406.363 392.202 404.646Z" fill="#59A3F5"/>
  <path d="M583.138 280.703C572.557 280.703 565.719 271.228 565.719 256.564C565.719 237.645 577.339 215.545 591.622 207.298C595.415 205.107 599.136 203.999 602.685 203.999C613.268 203.999 620.106 213.474 620.106 228.138C620.106 247.057 608.483 269.157 594.2 277.404C590.406 279.593 586.685 280.703 583.138 280.703ZM602.683 209.147C600.051 209.147 597.198 210.025 594.199 211.757C581.335 219.183 570.868 239.284 570.868 256.562C570.868 268.098 575.685 275.552 583.136 275.552C585.768 275.552 588.622 274.673 591.621 272.942C604.485 265.514 614.953 245.413 614.953 228.136C614.955 216.602 610.138 209.147 602.683 209.147Z" fill="#59A3F5"/>
  <path d="M603.502 236.235C603.502 244.034 598.761 253.093 592.911 256.47C587.062 259.846 582.322 256.263 582.322 248.463C582.322 240.664 587.064 231.606 592.911 228.229C598.761 224.852 603.502 228.436 603.502 236.235Z" fill="#59A3F5"/>
  <path d="M583.119 283.287C579.956 283.287 576.951 282.504 574.228 280.932C567.183 276.865 563.145 267.984 563.145 256.564C563.145 253.72 565.448 251.414 568.292 251.414C571.137 251.414 573.44 253.721 573.44 256.564C573.44 264.092 575.661 269.868 579.376 272.014C582.98 274.088 587.322 272.452 590.335 270.715C602.282 263.816 612.379 244.318 612.379 228.138C612.379 220.61 610.16 214.834 606.442 212.69C602.843 210.611 598.496 212.248 595.483 213.987C593.023 215.409 589.871 214.566 588.449 212.103C587.027 209.64 587.87 206.491 590.335 205.069C597.914 200.693 605.461 200.232 611.594 203.771C618.638 207.838 622.676 216.72 622.676 228.14C622.676 248.213 610.734 270.831 595.483 279.635C591.274 282.064 587.071 283.287 583.119 283.287Z" fill="#B18FFF"/>
  <path d="M535.281 164.361C535.281 164.361 520.205 206.711 500.208 214.92C490.541 218.888 474.955 207.546 461.959 216.653C447.599 226.714 442.883 240.9 432.988 249.401C419.774 260.749 414.477 253.16 414.477 253.16V289.964L535.282 220.218V164.361H535.281Z" fill="url(#paint10_linear_183_625)"/>
  <path d="M535.28 192.94C518.638 200.275 511.248 155.83 500.532 173.383C489.815 190.936 482.022 239.926 464.729 250.558C447.436 261.192 439.886 232.103 433.553 228.289C427.221 224.476 414.475 236.707 414.475 236.707V289.965L535.28 220.219V192.94Z" fill="url(#paint11_linear_183_625)"/>
  <path d="M414.475 236.706C414.475 236.706 427.221 224.476 433.553 228.288C439.886 232.101 447.436 261.19 464.729 250.557C482.022 239.924 489.815 190.934 500.532 173.381C511.248 155.828 518.638 200.273 535.28 192.938" stroke="#FF528E" stroke-width="1.4112" stroke-miterlimit="10" stroke-linecap="round" stroke-linejoin="round"/>
  <path d="M535.281 230.284V143.578" stroke="#59A3F5" stroke-width="1.4112" stroke-miterlimit="10" stroke-linecap="round" stroke-linejoin="round"/>
  <path d="M414.475 213.324V300.032" stroke="#59A3F5" stroke-width="1.4112" stroke-miterlimit="10" stroke-linecap="round" stroke-linejoin="round"/>
  <path d="M414.475 253.16C414.475 253.16 419.772 260.749 432.986 249.401C442.881 240.9 447.599 226.714 461.957 216.653C474.953 207.546 490.54 218.888 500.206 214.92C520.205 206.711 535.279 164.361 535.279 164.361" stroke="#59A3F5" stroke-width="1.4112" stroke-miterlimit="10" stroke-linecap="round" stroke-linejoin="round"/>
  <path d="M448.332 193.778V280.486" stroke="#59A3F5" stroke-width="1.4112" stroke-miterlimit="10" stroke-linecap="round" stroke-linejoin="round"/>
  <path d="M501.43 163.124V249.831" stroke="#59A3F5" stroke-width="1.4112" stroke-miterlimit="10" stroke-linecap="round" stroke-linejoin="round"/>
  <path d="M435.261 211.221L427.629 215.628V209.133L435.261 204.728V211.221Z" fill="#59A3F5"/>
  <path d="M441.756 214.029L427.629 222.185V219.588L441.756 211.432V214.029Z" fill="#59A3F5"/>
  <path d="M478.45 197.141L470.818 201.547V195.052L478.45 190.647V197.141Z" fill="#59A3F5"/>
  <path d="M484.945 199.948L470.818 208.104V205.507L484.945 197.351V199.948Z" fill="#34ACE0"/>
  <path d="M520.991 151.796L513.359 156.203V149.708L520.991 145.301V151.796Z" fill="#59A3F5"/>
  <path d="M527.486 154.604L513.359 162.76V160.162L527.486 152.005V154.604Z" fill="#59A3F5"/>
  <path d="M451.86 303.952L414.475 326.101V319.606L451.86 297.457V303.952Z" fill="#FFD562"/>
  <path d="M476.037 303.952L414.475 340.423V333.928L476.037 297.457V303.952Z" fill="#59A3F5"/>
  <path d="M476.037 318.273L414.475 354.745V348.25L476.037 311.778V318.273Z" fill="#59A3F5"/>
  <path d="M476.037 332.596L414.475 369.068V362.573L476.037 326.101V332.596Z" fill="#59A3F5"/>
  <path d="M476.037 346.918L414.475 383.39V376.895L476.037 340.422V346.918Z" fill="#59A3F5"/>
  <path d="M528.237 258.472L490.852 280.621V274.126L528.237 251.979V258.472Z" fill="#FFD562"/>
  <path d="M552.414 258.472L490.852 294.944V288.449L552.414 251.979V258.472Z" fill="#59A3F5"/>
  <path d="M552.414 272.795L490.852 309.267V302.772L552.414 266.3V272.795Z" fill="#59A3F5"/>
  <path d="M552.414 287.118L490.852 323.589V317.094L552.414 280.621V287.118Z" fill="#59A3F5"/>
  <path d="M552.414 301.439L490.852 337.912V331.417L552.414 294.944V301.439Z" fill="#59A3F5"/>
  <path d="M595.927 120.911L558.543 143.061V136.565L595.927 114.416V120.911Z" fill="#FFD562"/>
  <path d="M620.104 120.911L558.543 157.383V150.888L620.104 114.416V120.911Z" fill="#59A3F5"/>
  <path d="M620.104 135.234L558.543 171.704V165.211L620.104 128.738V135.234Z" fill="#59A3F5"/>
  <path d="M620.104 149.555L558.543 186.027V179.534L620.104 143.061V149.555Z" fill="#59A3F5"/>
  <path d="M620.104 163.878L558.543 200.35V193.855L620.104 157.383V163.878Z" fill="#59A3F5"/>
  <path d="M451.857 413.482V451.302L360.686 503.939" stroke="#FF528E" stroke-width="2.4961" stroke-miterlimit="10" stroke-linecap="round" stroke-linejoin="round"/>
  <path d="M476.949 428.944V466.764L363.684 532.157" stroke="#52F894" stroke-width="2.4961" stroke-miterlimit="10" stroke-linecap="round" stroke-linejoin="round"/>
  <path d="M585.311 417.544C584.466 417.544 583.612 417.328 582.827 416.877L575.015 412.367C572.637 410.993 571.821 407.951 573.195 405.571C574.567 403.192 577.614 402.379 579.99 403.75L587.8 408.26C590.179 409.633 590.995 412.678 589.622 415.055C588.702 416.651 587.028 417.544 585.311 417.544Z" fill="#2D527B"/>
  <path d="M586.654 413.482V451.302L677.826 503.939" stroke="#B18FFF" stroke-width="2.4961" stroke-miterlimit="10" stroke-linecap="round" stroke-linejoin="round"/>
  <path d="M560.222 433.003C559.377 433.003 558.523 432.79 557.738 432.337L549.928 427.828C547.549 426.454 546.733 423.411 548.106 421.032C549.48 418.652 552.527 417.837 554.902 419.211L562.713 423.72C565.09 425.094 565.907 428.138 564.533 430.516C563.613 432.112 561.939 433.003 560.222 433.003Z" fill="#2D527B"/>
  <path d="M561.566 428.944V466.764L674.831 532.157" stroke="#59A3F5" stroke-width="2.4961" stroke-miterlimit="10" stroke-linecap="round" stroke-linejoin="round"/>
  <path d="M459.284 580.772L334.768 508.736C329.418 505.646 322.824 505.646 317.474 508.736L238.575 554.288L232 552.964V561.42C232 563.369 232.963 565.314 234.89 566.426L370.128 644.652C375.478 647.744 382.072 647.744 387.422 644.652L470.004 596.974C471.93 595.863 472.894 593.915 472.894 591.968V583.511L459.284 580.772Z" fill="#5BA5F5"/>
  <path d="M234.892 557.97L370.129 636.196C375.48 639.286 382.073 639.286 387.424 636.196L470.005 588.518C473.859 586.292 473.859 580.73 470.005 578.506L334.768 500.28C329.418 497.19 322.824 497.19 317.474 500.28L234.892 547.958C231.039 550.182 231.039 555.746 234.892 557.97Z" fill="#A5CBF4"/>
  <path opacity="0.1" d="M414.692 604.827L365.247 633.374L315.801 604.827L373.51 571.507L414.692 604.827Z" fill="url(#paint12_linear_183_625)"/>
  <path d="M269.102 496.138L320.576 525.857L373.509 495.296L322.035 465.578L269.102 496.138Z" fill="#DBECFD"/>
  <path d="M269.102 496.138V557.443L320.576 587.161V525.857L269.102 496.138Z" fill="#62A9F5"/>
  <path d="M320.576 587.161L373.509 556.601V495.296L320.576 525.857V587.161Z" fill="#A4D0FA"/>
  <path opacity="0.2" d="M340.148 503.478C328.717 510.078 311.424 510.796 301.526 505.08C291.625 499.363 292.867 489.38 304.298 482.781C315.729 476.181 333.022 475.464 342.921 481.179C352.821 486.896 351.579 496.879 340.148 503.478Z" fill="#B18FFF"/>
  <path opacity="0.5" d="M334.477 500.207C326.66 504.72 314.837 505.211 308.068 501.3C301.299 497.393 302.148 490.566 309.963 486.053C317.78 481.539 329.605 481.048 336.374 484.959C343.142 488.867 342.294 495.695 334.477 500.207Z" fill="#B18FFF"/>
  <path opacity="0.5" d="M349.584 490.395V314.895L294.865 320.51V494.772C294.599 498.625 296.78 502.343 301.52 505.08C311.42 510.796 328.712 510.078 340.143 503.478C346.62 499.741 349.822 494.915 349.584 490.395Z" fill="url(#paint13_linear_183_625)"/>
  <path opacity="0.5" d="M340.936 341.532C340.867 339.114 339.367 336.813 336.372 335.085C329.602 331.176 317.778 331.667 309.961 336.18C305.416 338.804 303.231 342.21 303.526 345.371V494.11C303.279 496.795 304.764 499.395 308.065 501.302C314.835 505.211 326.659 504.722 334.474 500.208C338.787 497.718 340.974 494.525 340.934 491.505H340.939V341.534L340.936 341.532Z" fill="url(#paint14_linear_183_625)"/>
  <path opacity="0.5" d="M332.253 405.979C332.216 404.683 331.411 403.449 329.806 402.523C326.176 400.428 319.835 400.689 315.644 403.109C313.208 404.515 312.036 406.342 312.194 408.037V487.792C312.061 489.233 312.857 490.627 314.627 491.649C318.257 493.744 324.597 493.482 328.789 491.062C331.1 489.728 332.274 488.015 332.253 486.396H332.256V405.979H332.253Z" fill="url(#paint15_linear_183_625)"/>
  <path opacity="0.5" d="M334.477 418.993C326.66 423.506 314.837 423.997 308.068 420.088C301.299 416.181 302.148 409.354 309.963 404.841C317.78 400.327 329.605 399.836 336.374 403.747C343.142 407.654 342.294 414.481 334.477 418.993Z" stroke="#B18FFF" stroke-width="0.4805" stroke-miterlimit="10"/>
  <path opacity="0.5" d="M334.477 447.569C326.66 452.082 314.837 452.571 308.068 448.662C301.299 444.755 302.148 437.928 309.963 433.415C317.78 428.903 329.605 428.412 336.374 432.319C343.142 436.23 342.294 443.055 334.477 447.569Z" stroke="#B18FFF" stroke-width="0.4805" stroke-miterlimit="10"/>
  <path opacity="0.5" d="M334.477 475.708C326.66 480.221 314.837 480.71 308.068 476.801C301.299 472.894 302.148 466.067 309.963 461.554C317.78 457.04 329.605 456.549 336.374 460.457C343.142 464.367 342.294 471.193 334.477 475.708Z" stroke="#B18FFF" stroke-width="0.4805" stroke-miterlimit="10"/>
  <path d="M778.384 539.386L704.198 496.231C698.848 493.141 692.254 493.141 686.902 496.231L608.004 541.782L601.43 540.459V548.916C601.43 550.863 602.394 552.81 604.322 553.922L689.231 603.268C694.581 606.36 701.174 606.36 706.527 603.268L789.109 555.59C791.036 554.479 791.999 552.531 791.999 550.584V542.128L778.384 539.386Z" fill="#5BA5F5"/>
  <path d="M604.321 545.465L689.23 594.811C694.581 597.9 701.173 597.9 706.526 594.811L789.108 547.133C792.961 544.907 792.961 539.345 789.108 537.121L704.199 487.775C698.848 484.685 692.254 484.685 686.903 487.775L604.321 535.453C600.466 537.679 600.466 543.241 604.321 545.465Z" fill="#A5CBF4"/>
  <path opacity="0.1" d="M721.477 586.179L693.164 569.83L746.097 539.271L774.41 555.617L721.477 586.179Z" fill="url(#paint16_linear_183_625)"/>
  <path opacity="0.1" d="M302.849 597.282L320.58 587.161L269.097 557.411L251.365 567.53L302.849 597.282Z" fill="url(#paint17_linear_183_625)"/>
  <path opacity="0.1" d="M721.977 566.26L739.311 575.922L755.078 566.817L746.849 562.276L721.977 566.26Z" fill="url(#paint18_linear_183_625)"/>
  <path d="M641.689 478.808L693.164 508.527L746.097 477.967L694.622 448.248L641.689 478.808Z" fill="#DBECFD"/>
  <path d="M641.689 478.808V540.113L693.164 569.83V508.527L641.689 478.808Z" fill="#62A9F5"/>
  <path d="M693.164 569.83L746.097 539.271V477.967L693.164 508.527V569.83Z" fill="#A4D0FA"/>
  <path opacity="0.2" d="M712.736 486.148C701.305 492.749 684.012 493.466 674.113 487.751C664.214 482.034 665.454 472.05 676.885 465.452C688.318 458.851 705.611 458.134 715.51 463.849C725.408 469.566 724.168 479.55 712.736 486.148Z" fill="#33D9B2"/>
  <path opacity="0.5" d="M707.066 482.877C699.25 487.39 687.426 487.881 680.655 483.972C673.887 480.065 674.735 473.238 682.552 468.725C690.369 464.211 702.192 463.72 708.961 467.631C715.732 471.537 714.882 478.365 707.066 482.877Z" fill="#33D9B2"/>
  <path opacity="0.5" d="M713.526 324.202C713.458 321.784 711.957 319.483 708.962 317.755C702.192 313.846 690.369 314.337 682.553 318.85C678.007 321.475 675.823 324.88 676.118 328.041V476.78C675.873 479.467 677.355 482.065 680.657 483.972C687.426 487.881 699.251 487.392 707.068 482.877C711.38 480.387 713.568 477.195 713.529 474.174H713.536V324.202H713.526Z" fill="url(#paint19_linear_183_625)"/>
  <path opacity="0.5" d="M722.176 473.066V297.565L667.457 303.18V477.442C667.192 481.297 669.37 485.013 674.111 487.751C684.012 493.466 701.305 492.749 712.734 486.148C719.21 482.411 722.412 477.586 722.176 473.066Z" fill="url(#paint20_linear_183_625)"/>
  <path opacity="0.5" d="M704.845 388.649C704.808 387.353 704.003 386.119 702.398 385.193C698.769 383.096 692.427 383.361 688.236 385.78C685.8 387.187 684.628 389.013 684.786 390.707V470.462C684.653 471.904 685.449 473.297 687.218 474.319C690.849 476.414 697.189 476.152 701.38 473.732C703.692 472.398 704.865 470.686 704.845 469.066H704.848V388.649H704.845Z" fill="url(#paint21_linear_183_625)"/>
  <path opacity="0.5" d="M707.066 401.663C699.25 406.177 687.426 406.668 680.655 402.757C673.887 398.849 674.735 392.023 682.552 387.511C690.369 382.997 702.192 382.508 708.961 386.416C715.732 390.325 714.882 397.151 707.066 401.663Z" stroke="#52F894" stroke-width="0.4805" stroke-miterlimit="10"/>
  <path opacity="0.5" d="M707.066 430.239C699.25 434.752 687.426 435.242 680.655 431.333C673.887 427.425 674.735 420.598 682.552 416.085C690.369 411.572 702.192 411.081 708.961 414.988C715.732 418.9 714.882 425.726 707.066 430.239Z" stroke="#52F894" stroke-width="0.4805" stroke-miterlimit="10"/>
  <path opacity="0.5" d="M707.066 458.376C699.25 462.89 687.426 463.381 680.655 459.47C673.887 455.562 674.735 448.736 682.552 444.224C690.369 439.71 702.192 439.219 708.961 443.129C715.732 447.038 714.882 453.863 707.066 458.376Z" stroke="#52F894" stroke-width="0.4805" stroke-miterlimit="10"/>
  <path d="M526.742 388.746V415.326L591.334 378.035V351.453L526.742 388.746Z" fill="#2D527B"/>
  <path d="M533.408 395.656L537.486 393.3V390.819L533.408 393.175V395.656Z" fill="#52F894"/>
  <path d="M554.604 380.938V383.418L558.683 381.062V378.583L554.604 380.938Z" fill="#52F894"/>
  <path d="M543.494 389.831L545.355 388.756V383.319L543.494 384.392V389.831Z" fill="#52F894"/>
  <path d="M549.544 378.645L548.229 381.158L549.8 382.344L548.229 385.344L549.544 386.339L552.428 380.829L552.426 380.828L552.428 380.824L549.544 378.645Z" fill="#52F894"/>
  <path d="M539.365 392.216L541.404 391.039V388.558L539.365 389.736V392.216Z" fill="#52F894"/>
  <path d="M544.209 401.646L548.286 399.293V396.812L544.209 399.167V401.646Z" fill="#52F894"/>
  <path d="M533.1 408.059L534.96 406.985V401.548L533.1 402.623V408.059Z" fill="#52F894"/>
  <path d="M552.849 391.221L550.988 392.295V395.253V397.732L552.849 396.66L555.065 395.379V392.898L552.849 394.178V391.221Z" fill="#52F894"/>
  <path d="M539.152 396.872L537.838 399.385L539.407 400.574L537.838 403.572L539.152 404.566L542.034 399.057L542.032 399.055L542.034 399.052L539.152 396.872Z" fill="#52F894"/>
  <path d="M556.941 391.814V394.295L558.98 393.116V390.636L556.941 391.814Z" fill="#52F894"/>
  <path d="M562.871 378.817L566.949 376.462V373.982L562.871 376.335V378.817Z" fill="#52F894"/>
  <path d="M584.066 364.101V366.58L588.143 364.225V361.744L584.066 364.101Z" fill="#52F894"/>
  <path d="M572.959 372.993L574.819 371.919V366.481L572.959 367.555V372.993Z" fill="#52F894"/>
  <path d="M579.007 361.806L577.691 364.319L579.26 365.505L577.691 368.505L579.007 369.5L581.889 363.991L581.888 363.989L581.889 363.986L579.007 361.806Z" fill="#52F894"/>
  <path d="M568.828 375.378L570.867 374.202V371.721L568.828 372.898V375.378Z" fill="#52F894"/>
  <path d="M573.674 384.809L577.754 382.454V379.975L573.674 382.328V384.809Z" fill="#52F894"/>
  <path d="M562.566 391.221L564.427 390.146V384.71L562.566 385.784V391.221Z" fill="#52F894"/>
  <path d="M582.314 374.384L580.455 375.458V378.414V380.895L582.314 379.82L584.533 378.54V376.061L582.314 377.339V374.384Z" fill="#52F894"/>
  <path d="M568.612 380.035L567.297 382.548L568.867 383.736L567.297 386.734L568.612 387.729L571.496 382.219L571.495 382.218L571.496 382.215L568.612 380.035Z" fill="#52F894"/>
  <path d="M586.408 374.975V377.457L588.449 376.278V373.799L586.408 374.975Z" fill="#52F894"/>
  <path d="M699.045 509.999V521.715L707.22 526.436L699.045 509.999Z" fill="#62A9F5"/>
  <path d="M699.045 509.999L738.674 487.759L746.847 504.194L707.22 526.436L699.045 509.999Z" fill="#DBECFD"/>
  <path d="M746.836 464.344C746.836 464.344 750.736 466.005 751.689 469.141C752.643 472.278 753.14 485.582 752.518 486.952C751.897 488.32 745.182 491.304 745.182 491.304L746.836 464.344Z" fill="#4BE29C"/>
  <path d="M727.731 447.323C727.731 447.323 727.15 456.194 727.731 457.85C728.311 459.508 731.13 460.256 731.13 460.256C731.13 460.256 732.29 449.726 732.207 449.394C732.124 449.064 727.731 447.323 727.731 447.323Z" fill="#FFAD91"/>
  <path d="M748.208 557.047C748.208 557.047 749.328 563.679 748.208 565.047C747.091 566.415 743.359 567.907 740.251 565.671C737.143 563.432 736.156 563.101 732.664 561.932C730.164 561.097 728.809 559.12 728.934 557.047C729.058 554.973 740.001 555.596 740.001 555.596L748.208 557.047Z" fill="#1E354E"/>
  <path d="M739.089 562.146C739.089 562.146 740.208 568.778 739.089 570.146C737.97 571.514 734.239 573.006 731.13 570.767C728.021 568.531 727.036 568.199 723.545 567.03C721.043 566.195 719.69 564.218 719.812 562.146C719.937 560.071 730.88 560.695 730.88 560.695L739.089 562.146Z" fill="#1E354E"/>
  <path d="M727.035 536.041L728.145 564.113C728.145 564.113 731.341 565.908 734.356 565.294C738.426 564.465 739.089 562.144 739.089 562.144V559.655C739.089 559.655 740.001 560.484 743.4 559.987C746.799 559.49 748.292 557.085 748.292 557.085L748.706 530.059L727.035 536.041Z" fill="#2D527B"/>
  <path d="M740.6 560.106L741.121 533.595L739.383 535.676L739.09 559.658L739.225 559.746C739.412 559.851 739.822 560.027 740.6 560.106Z" fill="#A4D0FA"/>
  <path d="M746.834 464.344C746.834 464.344 750.278 465.935 750.153 471.532C750.029 477.128 747.169 488.32 747.418 490.931C747.665 493.543 749.455 498.89 750.157 505.689C750.858 512.487 751.687 528.57 751.687 528.57C751.687 528.57 748.127 533.5 739.378 535.678C730.63 537.855 725.944 535.678 725.944 535.678C725.944 535.678 725.82 506.518 726.649 502.208C727.478 497.897 723.041 491.762 724.494 484.632C725.944 477.503 726.566 470.454 726.566 470.454C726.566 470.454 744.5 461.868 746.834 464.344Z" fill="#62EEAF"/>
  <path d="M729.843 450.14C729.843 450.14 726.82 449.477 725.95 446.741C725.079 444.005 725.325 440.026 727.898 438.284C730.468 436.543 733.784 435.548 736.604 436.128C739.423 436.708 748.541 440.771 749.371 447.321C750.2 453.869 747.713 459.175 748.376 465.228C749.04 471.28 749.122 473.434 747.713 477.498C746.304 481.56 743.485 482.387 743.485 482.387C743.485 482.387 738.264 482.223 734.449 477.166C730.635 472.108 729.845 469.137 729.845 469.137L726.571 470.45C726.571 470.45 727.483 467.382 728.81 464.897C730.136 462.411 729.843 450.971 729.843 450.14Z" fill="#2D527B"/>
  <path d="M726.571 470.453C726.571 470.453 730.635 469.914 731.381 474.764C732.127 479.613 732.127 496.278 731.381 497.895C730.635 499.512 718.448 507.097 718.448 507.097L713.35 500.269L723.173 493.17C723.173 493.17 723.173 476.753 723.672 474.392C724.168 472.028 725.236 471.224 726.571 470.453Z" fill="#4BE29C"/>
  <path d="M713.346 500.269C713.346 500.269 711.398 501.709 710.32 503.697C709.242 505.688 709.741 509.17 710.652 509.334C711.564 509.501 713.47 509.501 713.885 508.755C714.299 508.008 714.299 507.512 714.299 507.512C714.299 507.512 714.88 507.765 716.166 507.263C717.788 506.628 717.418 505.723 717.418 505.723L713.346 500.269Z" fill="#FFAD91"/>
  <path d="M424.424 568.175L368.117 573.36V596.643C368.17 600.327 370.415 603.841 374.973 606.471C385.155 612.351 402.941 611.614 414.699 604.826C421.216 601.063 424.497 596.231 424.408 591.67L424.424 591.668V568.175Z" fill="#62A9F5"/>
  <path d="M377.826 559.947C366.068 566.736 364.791 577.003 374.974 582.882C385.157 588.762 402.942 588.025 414.7 581.235C426.458 574.447 427.735 564.18 417.552 558.3C407.371 552.422 389.584 553.159 377.826 559.947Z" fill="#DBECFD"/>
  <path d="M356.639 593.165C356.639 593.165 356.832 594.892 355.775 597.193C354.721 599.495 352.515 599.686 350.31 598.535C348.104 597.384 346.379 594.988 344.459 594.412C342.541 593.837 334.438 589.186 334.822 586.309C335.204 583.431 347.911 585.781 351.267 587.796C354.626 589.81 356.639 593.165 356.639 593.165Z" fill="#1E354E"/>
  <path d="M413.426 557.964C413.426 557.964 413.47 566.632 411.169 569.221C408.868 571.81 400.419 577.535 391.357 575.091C382.295 572.646 368.486 568.617 368.486 568.617L356.642 593.165L356.144 593.231C352.519 593.703 349.174 591.211 348.586 587.605C348.586 587.605 358.175 557.492 363.738 555.574C369.3 553.658 391.26 555.574 391.26 555.574L413.426 557.964Z" fill="#2D527B"/>
  <path d="M393.762 542.405L380.566 534.788L359.505 546.946L380.089 516.639L379.301 516.185C378.602 515.781 377.742 515.781 377.042 516.185L356.259 528.183C355.528 528.607 355.078 529.387 355.078 530.23V546.93C355.078 547.63 355.453 548.279 356.06 548.626L370.582 556.972C371.168 557.309 371.888 557.307 372.475 556.969L394.766 544.1C395 543.965 395.094 543.721 395.072 543.485L395.078 543.483V542.23L393.762 542.405Z" fill="#62A9F5"/>
  <path d="M356.361 547.364L370.581 555.573C371.167 555.911 371.89 555.911 372.476 555.573L394.767 542.704C395.196 542.455 395.196 541.835 394.767 541.588L380.567 533.388L356.361 547.364Z" fill="#DBECFD"/>
  <path d="M356.361 547.364V530.874C356.361 530.184 356.73 529.548 357.326 529.203L379.102 516.631C379.752 516.255 380.567 516.725 380.567 517.476V533.387L356.361 547.364Z" fill="#2D527B"/>
  <path d="M357.578 545.216V531.588C357.578 531.019 357.883 530.491 358.375 530.208L378.385 518.614C378.922 518.305 379.597 518.692 379.597 519.312V532.464L357.578 545.216Z" fill="#5BA5F5"/>
  <path d="M359.916 546.956L380.422 535.117L387.572 539.244L367.065 551.083L359.916 546.956Z" fill="#A4D0FA"/>
  <path d="M375.424 547.821L381.383 544.365L384.844 546.362L378.885 549.819L375.424 547.821Z" fill="#D1CCC0"/>
  <path opacity="0.1" d="M360.558 528.943L357.578 534.635V545.216L363.911 541.548L374.839 520.669L360.558 528.943Z" fill="#F7F1E3"/>
  <path opacity="0.1" d="M379.597 529.433V519.312C379.597 518.876 379.259 518.568 378.873 518.525L368.09 539.128L377.319 533.782L379.597 529.433Z" fill="#F7F1E3"/>
  <path d="M387.948 536.547C387.948 536.547 385.573 534.126 383.569 534.018C381.565 533.91 377.896 538.152 377.896 540.454C377.896 542.755 378.472 542.755 379.191 542.826C379.91 542.898 380.342 541.819 380.342 541.819C380.342 541.819 381.134 542.185 381.493 542.83C381.853 543.474 382.295 545.344 385.166 544.985C388.039 544.625 387.948 536.547 387.948 536.547Z" fill="#E69C83"/>
  <path d="M387.949 536.547C387.949 536.547 386.127 536.833 385.169 539.231C384.209 541.629 385.169 544.985 385.169 544.985C385.169 544.985 398.066 547.424 400.751 545.795C403.436 544.166 407.559 531.218 406.792 522.971C406.025 514.724 403.536 512.825 400.367 513.382C397.197 513.94 396.147 515.3 395.86 519.998C395.571 524.696 395.571 534.095 394.709 535.533C393.846 536.971 387.949 536.547 387.949 536.547Z" fill="#D1CCC0"/>
  <path d="M374.714 545.848C374.714 545.848 372.339 543.427 370.335 543.319C368.331 543.211 364.662 547.455 364.662 549.755C364.662 552.056 365.238 552.056 365.957 552.129C366.676 552.201 367.108 551.121 367.108 551.121C367.108 551.121 367.898 551.486 368.259 552.132C368.619 552.775 369.061 554.645 371.932 554.286C374.805 553.926 374.714 545.848 374.714 545.848Z" fill="#E69C83"/>
  <path d="M390.488 518.176C390.488 518.176 385.213 521.565 383.679 524.634C382.146 527.703 385.967 541.67 385.597 548.191C385.227 554.712 383.871 557.972 385.213 560.657C386.555 563.341 395.762 565.932 402.57 564.397C409.379 562.863 414.076 558.41 414.076 556.301C414.076 554.192 413.586 547.949 413.586 544.304C413.586 540.661 414.269 524.483 412.735 518.73C411.201 512.977 404.199 512.231 402.474 512.613C400.749 512.997 390.488 518.176 390.488 518.176Z" fill="#B89FFE"/>
  <path d="M386.561 496.025C386.561 496.025 384.93 510.216 386.561 512.133C388.19 514.051 390.492 514.531 390.492 514.531V518.176C390.492 518.176 392.986 519.421 397.3 518.176C401.616 516.929 402.574 515.107 402.574 515.107V491.899L386.561 496.025Z" fill="#E69C83"/>
  <path d="M386.556 496.025C386.556 496.025 385.692 495.065 385.214 492.954C384.734 490.845 385.058 485.437 386.556 484.576C387.873 483.819 389.241 484.612 389.241 484.612C389.241 484.612 390.056 483.03 391.278 482.957C392.501 482.885 393.22 483.821 393.22 483.821C393.22 483.821 393.518 482.467 394.813 482.542C396.107 482.619 396.578 483.378 396.578 483.378C396.578 483.378 406.096 483.819 408.9 490.364C411.706 496.908 410.531 507.913 407.557 511.174C404.584 514.436 399.695 515.587 396.817 514.627C393.939 513.667 391.254 505.9 391.254 505.9L389.145 505.313V496.982L386.556 496.025Z" fill="#2D527B"/>
  <path d="M391.258 505.901V500.243C391.258 500.243 394.614 500.483 394.902 502.785C395.191 505.085 394.159 508.076 392.302 508.507C391.282 508.741 391.258 505.901 391.258 505.901Z" fill="#E69C83"/>
  <path d="M374.715 545.847C374.715 545.847 372.893 546.136 371.934 548.534C370.975 550.932 371.934 554.288 371.934 554.288C371.934 554.288 384.832 556.727 387.517 555.096C390.202 553.465 394.326 540.519 393.559 532.274C392.792 524.027 390.302 522.126 387.134 522.684C383.965 523.242 382.916 524.602 382.627 529.301C382.34 533.999 382.34 543.397 381.476 544.835C380.612 546.273 374.715 545.847 374.715 545.847Z" fill="#A383F4"/>
  <defs>
    <linearGradient id="paint0_linear_183_625" x1="284.873" y1="310.402" x2="343.651" y2="345.689" gradientUnits="userSpaceOnUse">
      <stop stop-color="#437AB8"/>
      <stop offset="1" stop-color="#437AB8" stop-opacity="0"/>
    </linearGradient>
    <linearGradient id="paint1_linear_183_625" x1="331.146" y1="391.951" x2="334.829" y2="120.29" gradientUnits="userSpaceOnUse">
      <stop stop-color="#FF528E"/>
      <stop offset="1" stop-color="#FF528E" stop-opacity="0"/>
    </linearGradient>
    <linearGradient id="paint2_linear_183_625" x1="333.914" y1="309.691" x2="333.914" y2="138.197" gradientUnits="userSpaceOnUse">
      <stop stop-color="#FF528E"/>
      <stop offset="1" stop-color="#FF528E" stop-opacity="0"/>
    </linearGradient>
    <linearGradient id="paint3_linear_183_625" x1="333.915" y1="287.446" x2="333.915" y2="195.489" gradientUnits="userSpaceOnUse">
      <stop stop-color="#FF528E"/>
      <stop offset="1" stop-color="#FF528E" stop-opacity="0"/>
    </linearGradient>
    <linearGradient id="paint4_linear_183_625" x1="714.398" y1="320.881" x2="796.474" y2="273.625" gradientUnits="userSpaceOnUse">
      <stop stop-color="#437AB8"/>
      <stop offset="1" stop-color="#437AB8" stop-opacity="0"/>
    </linearGradient>
    <linearGradient id="paint5_linear_183_625" x1="683.902" y1="390.932" x2="687.586" y2="119.272" gradientUnits="userSpaceOnUse">
      <stop stop-color="#FFD562"/>
      <stop offset="1" stop-color="#FFD562" stop-opacity="0"/>
    </linearGradient>
    <linearGradient id="paint6_linear_183_625" x1="686.671" y1="308.673" x2="686.671" y2="137.179" gradientUnits="userSpaceOnUse">
      <stop stop-color="#FFD562"/>
      <stop offset="1" stop-color="#FFD562" stop-opacity="0"/>
    </linearGradient>
    <linearGradient id="paint7_linear_183_625" x1="686.669" y1="286.428" x2="686.669" y2="194.471" gradientUnits="userSpaceOnUse">
      <stop stop-color="#FFD562"/>
      <stop offset="1" stop-color="#FFD562" stop-opacity="0"/>
    </linearGradient>
    <linearGradient id="paint8_linear_183_625" x1="471.054" y1="452.536" x2="403.834" y2="492.89" gradientUnits="userSpaceOnUse">
      <stop stop-color="#437AB8"/>
      <stop offset="1" stop-color="#437AB8" stop-opacity="0"/>
    </linearGradient>
    <linearGradient id="paint9_linear_183_625" x1="430.573" y1="492.393" x2="569.274" y2="69.9121" gradientUnits="userSpaceOnUse">
      <stop stop-color="#59A3F5"/>
      <stop offset="0.1131" stop-color="#6CADF5"/>
      <stop offset="0.5348" stop-color="#ADCFF3"/>
      <stop offset="0.8418" stop-color="#D5E4F2"/>
      <stop offset="1" stop-color="#E5ECF2"/>
    </linearGradient>
    <linearGradient id="paint10_linear_183_625" x1="474.878" y1="245.675" x2="450.691" y2="203.783" gradientUnits="userSpaceOnUse">
      <stop stop-color="#59A3F5" stop-opacity="0"/>
      <stop offset="1" stop-color="#59A3F5"/>
    </linearGradient>
    <linearGradient id="paint11_linear_183_625" x1="474.878" y1="266.951" x2="445.166" y2="215.49" gradientUnits="userSpaceOnUse">
      <stop stop-color="#FF528E" stop-opacity="0"/>
      <stop offset="1" stop-color="#FF528E"/>
    </linearGradient>
    <linearGradient id="paint12_linear_183_625" x1="359.1" y1="596.839" x2="433.768" y2="641.664" gradientUnits="userSpaceOnUse">
      <stop stop-color="#437AB8"/>
      <stop offset="1" stop-color="#437AB8" stop-opacity="0"/>
    </linearGradient>
    <linearGradient id="paint13_linear_183_625" x1="319.452" y1="610.714" x2="323.135" y2="339.054" gradientUnits="userSpaceOnUse">
      <stop stop-color="#B18FFF"/>
      <stop offset="1" stop-color="#B18FFF" stop-opacity="0"/>
    </linearGradient>
    <linearGradient id="paint14_linear_183_625" x1="322.221" y1="528.455" x2="322.221" y2="356.961" gradientUnits="userSpaceOnUse">
      <stop stop-color="#B18FFF"/>
      <stop offset="1" stop-color="#B18FFF" stop-opacity="0"/>
    </linearGradient>
    <linearGradient id="paint15_linear_183_625" x1="322.218" y1="506.21" x2="322.218" y2="414.253" gradientUnits="userSpaceOnUse">
      <stop stop-color="#B18FFF"/>
      <stop offset="1" stop-color="#B18FFF" stop-opacity="0.0167"/>
    </linearGradient>
    <linearGradient id="paint16_linear_183_625" x1="727.873" y1="559.173" x2="782.774" y2="592.132" gradientUnits="userSpaceOnUse">
      <stop stop-color="#437AB8"/>
      <stop offset="1" stop-color="#437AB8" stop-opacity="0"/>
    </linearGradient>
    <linearGradient id="paint17_linear_183_625" x1="290.644" y1="574.541" x2="247.281" y2="600.573" gradientUnits="userSpaceOnUse">
      <stop stop-color="#437AB8"/>
      <stop offset="1" stop-color="#437AB8" stop-opacity="0"/>
    </linearGradient>
    <linearGradient id="paint18_linear_183_625" x1="729.578" y1="560.428" x2="762.586" y2="582.966" gradientUnits="userSpaceOnUse">
      <stop stop-color="#437AB8"/>
      <stop offset="1" stop-color="#437AB8" stop-opacity="0"/>
    </linearGradient>
    <linearGradient id="paint19_linear_183_625" x1="694.811" y1="511.125" x2="694.811" y2="339.631" gradientUnits="userSpaceOnUse">
      <stop stop-color="#52F894"/>
      <stop offset="1" stop-color="#52F894" stop-opacity="0"/>
    </linearGradient>
    <linearGradient id="paint20_linear_183_625" x1="692.042" y1="593.384" x2="695.725" y2="321.724" gradientUnits="userSpaceOnUse">
      <stop stop-color="#52F894"/>
      <stop offset="1" stop-color="#52F894" stop-opacity="0"/>
    </linearGradient>
    <linearGradient id="paint21_linear_183_625" x1="694.81" y1="488.88" x2="694.81" y2="396.923" gradientUnits="userSpaceOnUse">
      <stop stop-color="#52F894"/>
      <stop offset="1" stop-color="#52F894" stop-opacity="0"/>
    </linearGradient>
  </defs>
</svg>
